<mxfile host="65bd71144e">
    <diagram id="HIP3nbAZw_EuaXWnEj3U" name="Page-1">
        <mxGraphModel dx="1086" dy="651" grid="1" gridSize="10" guides="1" tooltips="1" connect="1" arrows="1" fold="1" page="1" pageScale="1" pageWidth="850" pageHeight="1100" math="0" shadow="0">
            <root>
                <mxCell id="0"/>
                <mxCell id="1" parent="0"/>
                <mxCell id="7" value="http://ics2o.mths.ca" style="swimlane;whiteSpace=wrap;html=1;" parent="1" vertex="1">
                    <mxGeometry x="45" y="50" width="760" height="480" as="geometry"/>
                </mxCell>
                <mxCell id="8" value="Formula&lt;br&gt;&lt;span style=&quot;color: rgba(0, 0, 0, 0.87); font-family: Roboto, Helvetica, Arial, sans-serif; font-size: 16px; letter-spacing: 0.64px; text-align: start; background-color: rgb(128, 128, 128);&quot;&gt;V = 4/3 π r³&lt;/span&gt;" style="text;html=1;align=center;verticalAlign=middle;resizable=0;points=[];autosize=1;strokeColor=none;fillColor=none;" vertex="1" parent="7">
                    <mxGeometry x="50" y="100" width="110" height="50" as="geometry"/>
                </mxCell>
                <mxCell id="9" value="Enter radius&lt;br&gt;" style="text;html=1;align=center;verticalAlign=middle;resizable=0;points=[];autosize=1;strokeColor=none;fillColor=none;" vertex="1" parent="7">
                    <mxGeometry x="40" y="190" width="90" height="30" as="geometry"/>
                </mxCell>
                <mxCell id="10" value="" style="rounded=1;whiteSpace=wrap;html=1;" vertex="1" parent="7">
                    <mxGeometry x="40" y="230" width="110" height="20" as="geometry"/>
                </mxCell>
                <mxCell id="11" value="Calculate" style="whiteSpace=wrap;html=1;fillColor=#fa6800;fontColor=#000000;strokeColor=#C73500;" vertex="1" parent="7">
                    <mxGeometry x="40" y="280" width="60" height="20" as="geometry"/>
                </mxCell>
                <mxCell id="13" value="The volume is ..." style="text;html=1;align=center;verticalAlign=middle;resizable=0;points=[];autosize=1;strokeColor=none;fillColor=none;" vertex="1" parent="7">
                    <mxGeometry x="10" y="315" width="110" height="30" as="geometry"/>
                </mxCell>
                <mxCell id="14" value="" style="shape=image;imageAspect=0;aspect=fixed;verticalLabelPosition=bottom;verticalAlign=top;image=data:image/jpeg,/9j/4AAQSkZJRgABAQAAAQABAAD/2wBDAAgGBgcGBQgHBwcJCQgKDBQNDAsLDBkSEw8UHRofHh0aHBwgJC4nICIsIxwcKDcpLDAxNDQ0Hyc5PTgyPC4zNDL/2wBDAQkJCQwLDBgNDRgyIRwhMjIyMjIyMjIyMjIyMjIyMjIyMjIyMjIyMjIyMjIyMjIyMjIyMjIyMjIyMjIyMjIyMjL/wAARCAH0A+gDASIAAhEBAxEB/8QAHAABAAEFAQEAAAAAAAAAAAAAAAIHAQMFBgQI/8QAWBAAAgEDAQQFBggICwUGBgMAAAECAwQRBQYhEjFBUQcT0hakVmFxIhSBkaGxMtHwNlVSsxcjQhWyweGDYpRyVDM1dHNHkySCJjSSovFDozdFU3WEwsPi/8QAGQEBAQEBAQEAAAAAAAAAAAAAAAEDAgQF/8QANBEBAAICAAUEAQEGBgIDAAAAAAECAxEEMRMhUWGRFBJBgXEiwfDR4TJCQ0RygqGxIzNi/9oADAMBAAIRAxEAPwCv4AAAAAAAAAAAAAAAAAAAAAAAAAAAAAAAAAAAAAAAAAAAAAAchtZtpHQa9OxtLf4TfVEmov6sU+Wcb231EtaKxuXGTJXHX7W5OvBTLyy24fLZzd/oa/iL+WO3Ho55jX8Rn1a+rD5ePxPtKpgKZ+WO3Ho55jX8Q8sduPRzzGv4h1a+p8vH4n2lUwFM/LHbj0c8xr+IeWO3Ho55jX8Q6tfU+Xj8T7SqYCmfljtx6OeY1/EPLHbj0c8xr+IdWvqfLx+J9pVMBTPyx249HPMa/iHljtx6OeY1/EOrX1Pl4/E+0qmApn5Y7cejnmNfxDyx249HPMa/iHVr6ny8fifaVTAUz8sduPRzzGv4h5Y7cejnmNfxDq19T5ePxPtKpgKZ+WO3Ho55jX8Q8sduPRzzGv4h1a+p8vH4n2lUwFM/LHbj0c8xr+IeWO3Ho55jX8Q6tfU+Xj8T7SqYCmfljtx6OeY1/EPLHbj0c8xr+IdWvqfLx+J9pVMBTPyx249HPMa/iHljtx6OeY1/EOrX1Pl4/E+0qmApn5Y7cejnmNfxDyx249HPMa/iHVr6ny8fifaVTAUz8sduPRzzGv4h5Y7cejnmNfxDq19T5ePxPtKpgKZ+WO3Ho55jX8Q8sduPRzzGv4h1a+p8vH4n2lUwFM/LHbj0c8xr+IeWO3Ho55jX8Q6tfU+Xj8T7SqYCmfljtx6OeY1/EPLHbj0c8xr+IdWvqfLx+J9pVMBTPyx249HPMa/iHljtx6OeY1/EOrX1Pl4/E+0qmApn5Y7cejnmNfxDyx249HPMa/iHVr6ny8fifaVTAUz8sduPRzzGv4h5Y7cejnmNfxDq19T5ePxPtKpgKZ+WO3Ho55jX8Q8sduPRzzGv4h1a+p8vH4n2lUwFM/LHbj0c8xr+IeWO3Ho55jX8Q6tfU+Xj8T7SqYCmfljtx6OeY1/EPLHbj0c8xr+IdWvqfLx+J9pVMBTPyx249HPMa/iHljtx6OeY1/EOrX1Pl4/E+0qmApn5Y7cejnmNfxDyx249HPMa/iHVr6ny8fifaVTAUz8sduPRzzGv4h5Y7cejnmNfxDq19T5ePxPtKpgKZ+WO3Ho55jX8Q8sduPRzzGv4h1a+p8vH4n2lUwFMl2hbQafVpz1nQ+6t5PGVQqUm/ZxNplRLO7o39nSurefHRqxU4S60zqt4tya481Mm4q9IAO2oAAAAAAAAAAAAAAAAAAAAAAAAAAAAAAAAAAAAAAAAAAAAAAAAAAAAAAAAAAAAAAAAAAAAAAAAAAAAAAAAAAAAAAAAAABTKaU+21Kayk01noxb5+kqaUz/AN+H3/uxll/H7Xl4r/J/yhUwAGr1AAAAAAAAAAAAAAAAAAAAAAAAAAAAAAAAAAAAAAAAAAAAAAAAAAAAAAAAAAAAAAAAAAA5btCjGWxN+2k3F02s9D7yJLYB52I05t5/xF/8SY7QPwH1H+a/OQHZ/wDgPp387+cmZf6n6PL/ALn/AK/xdOADV6gAAAAAAAAAAAAAAAAAAAAAAAAAAAAAAAAAAAAAAAAAAAAAAAAAAAAAAAAAAAAAAAAAAAAAAAAAAAAAAAAAAAAAAAAAACmf+/D7/wB2KmFM/wDfh9/7sZZfx+15eK/yf8oVMABq9Qc3tnq2qaHs/U1HTKVvVnRlF1Y1oyl7j3NrDXJtfFk6Q893a0r2zrWteKlRrQdOcX0xawzm8TNZiHF4mazETqXIdn22dfaqhd072nQp3dvJPhoxai4Pk97e/Kfyo7c+fNnrmrsR2hq3upcNOnWla15PdmnJrE/UvqyKwbba5+4Nlru7hLFeS7qh18ctyfxb38R5uHzbxzN+debycLxG8Uzk515uRl2iave7cfuTSLeyqW7ue5jOrCTlwr68sqSXRJ8uRVEpD2PaHmrd65Vjuivg9HK6dzk/oXxs2O33aFdaTfy0bRVFXUUu+ruPE4N8oxXJvl19WCYs01xdTJPNzhzzTDObNPOeypoKLPS+06Fq9Td5ecXDnuPhCc0uf1OXxc+jHQb/ALP+0Cvrd2tI1bg+GOLdGvFY7zHNNck8ZfQue47rxMTaK2iY35a04us2itqzXfLa3adtRrOz15p9PS734PGrTnKa7qE8tNY+sn1nb7P3Na72c0y6uJcdavaUqlSWMZlKCbe7dzZTHto/zHSf9lU/hIqVst+CGif6Ch+bic47TOe8TPbs4w3tPE5KzPbs3AKK7K61qtz2pQs6+p3lW1+E3K7mpcSlDChNpcLeN2EVN2wr1bbZDVa1CrOlVhbycKkJYlF46GjTHni9ZtEcm2LiIyUteI5b/wDDegpf2RapqGpvWHf391d933PB39WU+HPHnGW+pfIYO1rVtR02/wBMjY6hdWqnSm5KhWlDLyueGifIjpdXTj5deh1tdlVwUPV12ibTWELyxd5CyhFRg6FdU3Lh3N54lKbe/rPNpfaZtHY2lexq/wDOXM2oUalaOalOWcYx+18e/PXyOPmVie8TEM/n0if3qzETynyryChGpfpHsKD1a9uNRo0Y4cpRrx4Y566cXu+OJ3/Z1tdcbTaZXpX3DK9tHFTqJY7yLzh45Z3PODrHxMXt9JiYn1aYuLre/wBJrMT6u4BTPb7b2807UY6JoiXwz3VVrcKk4ylyjFde9dfPrNJX0jtJ020lq09TuJSjDvJ0Fc8biun3GuHd1LItxMRaa1iZ1z0X4uItNa1m2uelZwcR2f7aT2ptK1vexhDULdJy4FhVIflJdG/c/i68Ltzal63r9q8nox5K5KxavIB5r28oafZVry5nwUKMHOcupJbyjdXbLa3bLWJ2mgKpbUVvVOk1Fxhu96c3y+LHqycZc1ceonvM/hnm4iuLUT3mfxCtoKIXmobfbEVaNW/u6lxbSlhSrVO+pzfU296+YqHZbR3G0uxFxqOixdPUe7lCNJYbp1Ulu37n0Pf0M5pxEWmazExMfhzj4qt5msxMWj8Od257QdQ03Wv3JodKDuY8MalVw45ccuUYrlneuvqwbfYi52wr3N1DaWHDRpwj3bnSjGUpN9DjuwkurpRSC4qa/HbNVK+f398JglmMP8Xdw7vq9XqK07Ez2qnb3flQpKqpx7nMaa3Y3/U+I8+DJbJlmZ3/AA/V5OGzWy5pm0zz5fj9fV1potp9qLHZawjc3fFOdSXDSpQxxVJfZ1voN6Ui7ZrK5lW02+jGUrWEJUnJLdCbae/2/wAR6uIvOPHNq83s4rJbFim9ebzVO13Xbmo3p+kWqgucZRnVa6t6a+g3myvahV13V6GmXOlcNWs2o1KE8pbsttPksLnlmDY/tG2esdCtNOu4TsalCmoSlGlxQqS6ZZjvy+byjuNOr6DrFytS0+dlc3NOLi61LDnFPofSvjPPh+9tTGTfo82DqXmLRl35huQcf2lXdzY7G3Fe0uK1vWVSmlOjNwkk5LpRTnZ7WNudoLT926Td15RpSc611Uq5ks8k5yy0upLfzfs2ycRFL/TUzLfLxdceTp6mZ9Fdjz3k5UrKvUg8SjTlJPqaRRSvru3Gw+oUoancVa9KTbjGvU72FVLGcS3tPf6sdWCrNnq9vruyz1K2yqVehN8MucWk00/Y8lx54yTNdamPwuLia5ZmupiY/EuD7Ntrdc2g2jr2up3zr0YWkqkY91CGJKcFn3Yp8pMqsfNGy2paxp+qTjodNzvrqk6EMQ4pJNxk2uj9np3I3up3HaFs446hqF3qFGE5cPFKvGrTT/spuK+Q8mDivrj/AHomfV4eG42aYv3om3mVegczsRtJLajZ+F3WhGFzTm6VZRT4XJYeV6mmmczt9t7eadqMdE0RL4Z7qq1uFScZS5Riuveuvn1nttmpWn3/AA+hbiKVxxknlKpgKMV9I7SdNtJatPU7iUow7ydBXPG4rp9xrh3dSydh2f7aT2ptK1vexhDULdJy4FhVIflJdG/c/i68LinERa31tExM+XGPiotf6WrNZnlv8u3BSjta1bUdNv8ATI2OoXVqp0puSoVpQy8rnho1ek3+3W1N1Z3dvK7jp1GrTjJ06qpxcYtKTbbTn0557/kObcVEXmmpmXNuMiuSccVmZjwrWDkdutr47KaXTdGEat9cNxoxl9VY5yfqWUcJZWHaLtLaQ1alqlajTl71KHwjuu8XqjFYx7foO754rb6REzPo7ycTFL/SsTafRWkFK9jNutVWv+T20abruTpwqzioyjUX7Msbnnofs55yVUO8WWuSu4aYc1ctftUABo1cx2gfgPqP81+cgOz/APAfTv5385MdoH4D6j/NfnIDs/8AwH07+d/OTMv9X9Hl/wBz/wBf4unABq9QAAAAAAAAAAAAAAAAAAAAAAAAAAAAAAAAAAAAAAAAAAAAAAAAAAAAAAAAAAAAAAAAAAAAAAAAAAAAAAAAAAAAAAAAAABTP/fh9/7sVMKZ/wC/D7/3Yyy/j9ry8V/k/wCUKmAA1eoAAFHu2LRO6u7TW6UfdrLuKzX5Sy4v41lf9KOW2g2putp9P0TTlCcqlvTVOa6alVvhT9e5L/xMrjtNosdoNnrvTm4qVWGacpcozW+L+XBwWynZdqGkbRW+oanXsqtG3bnGFGcpNzx7ucxW5c/akfOz4Lzkn6crc3yeJ4bJOWen/htraoGzmjw0LQLPToYzRprjkl9ab3yfytlFdSnHS+1mrcalvo09SVaba3KDkpRfxJr5D6AOT2u2FsNqoRrTqStr2nHhjXhHOV1SXSvkZ6OIwzakRT8PVxXDzfHWMfOrpZXVCNq7l1qaoKPG6rkuHh689RQbZprUe1encWSfczvqtaDS3KnmUvo3G8/RJrzXwV6zb/Ac54eKfP8AsYx853WyWxNhspSnOlOVxeVY8NSvNY3dUV0L5X6zO1cma1ftXUQytXNxF6/av1is7cP20f5jpP8Asqn8JFStlvwQ0T/QUPzcTmO0HYrUtqrqyq2Na1pxoU5Rkq85Rby092Is67RbOpp2g6fY1pRlVt7anSm4Pc5Rik8fId46WjPe0x2nTTFjtHE3vMdp0ojs5c0tO7WlUupqlCF7cU5Sk8JSkpxXztFU+0PUrWx2Nv4VqsVUuabpUYZWZt9S9XM0u1/ZjDXb+rqWm3MLe5q76tKqnwTl15W9evc8/To7PscvFb15Xt/buv3clRp0uLg48e65Sazj1JGFa5scWx1rve+7z1pnxRfHWu4nff8Aa9HYn/8AXP8A9f8A/sPP20f5jpP+yqfwkdP2ebH6hsm9S+H1bap8J7rg7icpY4eLOcxX5SMfaDsVqW1V1ZVbGta040KcoyVecot5ae7EWXpX+L9Nd/7r0cnwunrv4/V02ykYx2Q0VJJJ2NB7vXBFHdLpU5ds04SjFwWqVmljcsSk19CK1aLZ1NO0HT7GtKMqtvbU6U3B7nKMUnj5Dg7Hs+1a27QJa/OvZO1d5VuOBVJd5wycmljhxneuk0zUtaMeo5TH8GvEYr2jFqOUxv2h2m1SUtkNayk/+Rrvf/YZTbsX/wAx1b/ZU/4TKo61Z1NR0HULGjKMatxbVKUHN7lKUWln5Tkez7YrUtlbq9q31a1qRr04xiqE5Saw29+Yo6yUtOelojtG3WXHa3E0vEdo2prtCr2z7SryXwmnbXKvnOlXqrEKabThJ7nuSa34O/Wh9pc4KS2m01xazlPKa/4RvNrthLDauEazm7W+guGNeMc8S6pLpOJXZTtHFO1Wt26sXziqlTf/ANGMfOeecN6WntMxPidPNPD5Md7aiZiZ32nXu2uwGxGpaFrb1WpfafcWtSjOlm1qynltr+ilziVPOd2Q2XWyulSs1d1bmU595Jy3RT/oroR0R7cGOKUiIjT38PijHjisRr/y5nb6jWuNhtWp0M8apKTx0xjJSl8yZw3Y3fWlKtqVnOUIXdbgnTy8OcVnKXsb+cq60pRaaTT5p9JTHW+yOlcXkrrRb5WmXxdzUi3GL/oyW9ezeZZsd+pXLSN6/DHiMV4y1zUjeu2m27Vb21obGV7WrOCuLidNUYN721NSb+RP5TW9jdKrHQtQqyTVKdylDK54is/SjX2fZFqFzdRra5rEZpfXVFynOS6uKWMfIyp+m6da6VYUbKzpKlb0Vwwit5zjpe+Xq2jWoc4seTJn6141ERrX5UT1b/51U/8A8pb/AMKBXkplfdn2rXPaBHX4V7JWqvKVxwOpLvOGLi2scOM7n0lTTrhqWrN/tHOXfCY7Utkm0a3IavVdT0i07qz1W4tqcbrijCFw1w1MYyt+7pRtDj9sdhKG1s6VeV7WtrmlBwg8cdPGc749fx/Kb5JtFf3Y3L0ZZvFJmkblh1Dsx2Y1KLnQoVLSc96nbVXj5HlfMUou6FxsZtv3Ol3vwmpb1YqMoPDmnhuEl8z+6XTPsl2ioz7u31e17hvf+sqQ/wDKk1850Wy3Zda6Le0r/ULpXdxSkpU6cYcNOEuh797a6OXsPBbFbJMfWn1ny+ZfDfLaPrj+k75vf2qfgJc/7Wl/CNP2N3ls9EvrJTirpXLquHKTg4xSfsyn92bjtU/AS5/2tL+EU82Q2Fq7S6DPUrLUXaXlC6lSTaeHFQi8pren7z6zvJNo4mJrG+zTNa1eMiaRudOq7ZL21/c9hZcUXdO471RXNQUZJ+zLa+T1Gx7OqNSl2bSdRNKp384Jr9nevpTNFp3ZBc1bxXGuapCpFy4qkKPFKVT2ylj6Cp7sqdLS5WVrCFKnGi6VOC3KKxhHePHe2Wcto1200w48ls1s14121pRnseipbYXLaWY2M2n1e/TX8bKh9pqT7P8AU20nh0mvV+tgabYPYPVdltdrXt7XtKlKpbSopUJyby5Red8Vu906nbDR7jX9l7zTLSdKFes4cMqraiuGcZb8JvkjnDjvHDzWY793PD4r14W1Jjv3cl2Mf5FqP+qX8FHBbQq9s+0q8l8Jp21yr5zpV6qxCmm04Se57kmt+CrHZ/stfbK6bd219Vt6k61bvIujJySWEulIntdsJYbVwjWc3a30FwxrxjniXVJdJJwXtgrEc4c24bJfhqVjnH4aNaH2lzgpLabTXFrOU8pr/hGLYDYjUtC1t6rUvtPuLWpRnSza1ZTy21/RS5xNUuynaOKdqtbt1YvnFVKm/wD6MY+cqFshsutldKlZq7q3Mpz7yTluin/RXQi4sc2vE2rMa8ztcOGbZItesxrzbfdT/to/zHSf9lU/hIqRslCNPY/RowSSdlRk0utwTfztnNdoOxWpbVXVlVsa1rTjQpyjJV5yi3lp7sRZ12i2dTTtB0+xrSjKrb21OlNwe5yjFJ4+Q0x0tGe9pjtOmuLHaOJveY7TpSjtlpV1rmn1Xn4PK2cYbv2lJ8XzOJ79D0/b3UNFtbjTNpdN+B93GNOK/YSSXC/1W5rkVB1/Z6x2k0yVlfRbjnihUjulTl1plNp9k2u2VWS0rW6KpyfvOUp0pNevhzkyyYb1yTeImYnxOmGXBkrmnJETMT4nUlPYHaW72ohqV5q2l3F3Qr0qtdwqy41wtYylBdEd3IrCcJsZ2f1NmL+pf3OpTuLicHBwppxg89Ms75M7s34fH9KzMxqZ9dvXwuL6VmZjUz67AAeh6XMdoH4D6j/NfnIDs/8AwH07+d/OTHaB+A+o/wA1+cgOz/8AAfTv5385My/1f0eX/c/9f4unABq9QAAAAAAAAAAAAAAAAAAAAAAAAAAAAAAAAAAAAAAAAAAAAAAAAAAAAAAAAAAAAAAAAAAAAAAAAAAAAAAAAAAAAAAAAAABTP8A34ff+7FTCmM2qfbanJ4TaSz05t8fSZZfx+15eK/yf8oVOABq9QAAAAAAAAAAAAAAAAAAAAAAAAAAAAAAAAAAAAAAAAAANHtVoHlLodTTVc/BuOcZd5wceMPPLKPPsbsv5J6TVsXefCu8rutx93wYzGKxjL/J+c6QHHTr9/v+WfSp9+prvyAAdtAAAAAAAAAAAAAAAAAAAcx2gfgPqP8ANfnIDs//AAH07+d/OTI9oUlHYm/TaTk6aWel95EnsAmtiNOysf4n5yRl/qfo8v8Auf8Ar/F0wANXqAAAAAAAAAAAAAAAAAAAAAAAAAAAAAAAAAAAAAAAAAAAAAAAAAAAAAAAAAAAAAAAAAAAAAAAAAAAAAAAAAAAAAAAAAAAOQ2s2Ljr9enfWdx8Gv6aSU39WaXLON6a6zrwS1YtGpcZMdclfrbkpl5G7cLltH59X8JfyO249I/Pq/hKmAz6VfVh8TH5n3lTPyO249I/Pq/hHkdtx6R+fV/CVMA6VfU+Jj8z7ypn5Hbcekfn1fwjyO249I/Pq/hKmAdKvqfEx+Z95Uz8jtuPSPz6v4R5Hbcekfn1fwlTAOlX1PiY/M+8qZ+R23HpH59X8I8jtuPSPz6v4SpgHSr6nxMfmfeVM/I7bj0j8+r+EeR23HpH59X8JUwDpV9T4mPzPvKmfkdtx6R+fV/CPI7bj0j8+r+EqYB0q+p8TH5n3lTPyO249I/Pq/hHkdtx6R+fV/CVMA6VfU+Jj8z7ypn5Hbcekfn1fwjyO249I/Pq/hKmAdKvqfEx+Z95Uz8jtuPSPz6v4R5Hbcekfn1fwlTAOlX1PiY/M+8qZ+R23HpH59X8I8jtuPSPz6v4SpgHSr6nxMfmfeVM/I7bj0j8+r+EeR23HpH59X8JUwDpV9T4mPzPvKmfkdtx6R+fV/CPI7bj0j8+r+EqYB0q+p8TH5n3lTPyO249I/Pq/hHkdtx6R+fV/CVMA6VfU+Jj8z7ypn5Hbcekfn1fwjyO249I/Pq/hKmAdKvqfEx+Z95Uz8jtuPSPz6v4R5Hbcekfn1fwlTAOlX1PiY/M+8qZ+R23HpH59X8I8jtuPSPz6v4SpgHSr6nxMfmfeVM/I7bj0j8+r+EeR23HpH59X8JUwDpV9T4mPzPvKmfkdtx6R+fV/CPI7bj0j8+r+EqYB0q+p8TH5n3lTPyO249I/Pq/hHkdtx6R+fV/CVMA6VfU+Jj8z7ypn5Hbcekfn1fwjyO249I/Pq/hKmAdKvqfEx+Z95Uz8jtuPSPz6v4R5Hbcekfn1fwlTAOlX1PiY/M+8qZ+R23HpH59X8I8jtuPSPz6v4SpgHSr6nxMfmfeVM/I7bj0j8+r+EeR23HpH59X8JUwDpV9T4mPzPvKmfkdtx6R+fV/CPI7bj0j8+r+EqYB0q+p8TH5n3lTPyO249I/Pq/hHkdtx6R+fV/CVMA6VfU+Jj8z7ypkuz3aDUKtOGs653tvF5wq1Sq17OJJIqJZ2lGws6Vrbw4KNKKhCPUkekHVaRXk1x4aY9zUAB21AAAAAAAAAAAAAAAAAAAAAAAAAAAAAAAAAAAAAAAAAAAAAAAAAAAAAAAAAAAAAAAAAAAAAAAAAAAAAAAAAAAAAAAAAAAAAAAAAAAAAAAAAAAAAAAAAAAAAAAAAAAAAAAAAAAAAAAAAAAAAAAAAAAAAAAAAAAAAAAAAAAAAAAAAAAAAAAAAAAAAAAAAAAAAAAAAAAAAAAAAAAAAAAAAAAAAAAAAAAAAAAAAAAAAAAAAAAAAAAAAAAAAAAAAAAAAAAAAAAAPPXvLe3/AMSrGL6ukD0A09XXaccqjSlL1yeEeOrrF3PdGUYL+jH7TibxDiclXSGOdWnT+vUhH2ywcrO4r1fr1qkvU5bjFg56jmcvo6mV9aR53FP4pEHqlkv/AH18UWcxJqMW28Jb22QmlXofq5tKXKSJ1JTqS6n97WX/AN//AMr+wutTs3yrx+NNHF1dJhVjjvqilzUk+k88J3unVo067de3k8Ka5xL1JOpKoMb21lyuKfxyMsZwmsxkpL1PJxyalFSTynvTRdZTynh9aHUXqOzBydO8uaX1K9RY63k9dLWrmG6pGE114wyxkhYyQ6EGrpa3bzwqkZU31tZR76danWjmnOM16nk7i0TydxMTyZQAVQAAAAAAAAAAAAAAAAAAAAAAAAAAAAAAAAAAAAAAAAAAAAAAAAAAAAAAAAAAAAAAAAAAAAAAAAAAAAAAAAAAAAAAAAAAAAAAAAAAAAAAAAAAAAAAAAAAAAAAAAAAAAAAAAAAAAAAAAAAADXXerUbfMaf6yp1LkiTMRzSZiOb3tqMW20kulmuudZoUsxpJ1ZLpXL5TTXF3XunmrN4/JW5IwpGc5PDKcnh6q+pXVxlOfBHqhu+c8uC6RdIzZzueaOC+CWBgC2BglghVqwoQUpvc2luCvHW4rq57iLapx3za6T2RgoxUYrCW7CJpLmlveMvGGyWAIYIyhGcHGSynuwZcDAGnpV52WpfBK3+DU30pes2mDyapZO7tHwr9bD3oPpyZrKrKtawc2nUSxPHWUZMFsGTBbBBDAi5QacZNNcmnhk2izQR7bfWLiliNTFWPr3P5TbW2p29zhKfBN/sy3HNNBo6i8w7i8w7IHM2up3FthN95T/Jk96+M3lrfUbte5LEumL5o1i8S1reJeoAHToAAAAAAAAAAAAAAAAAAAAAAAAAAAAAAAAAAAAAAAAAAAAAAAAAAAAAAAAAAAAAAAAAAAAAAAAAAAAAAAAAAAAAAAAAAAAAAAAAAAAAAAAAAAAAAAAAAAAAAAAAAAAAAAAAAAw17inbU3OrJJfSYL7UKdnHH1qrW6K/jOer16tzVc6ssvq6Eji19OLX1yeq81Src5jDNOl1Lm/b9h4UgkSSMpmZ5sZmZ5rJEkgkSSIIpEki6RdICyQwTSGCiODxVV8IvoUucaay/v8AIe5tQi5N4SWWxT4JrvIYef2kt7CmC+CWBgCOC2CeBgCGDVUqsrXWp20sKnVjxQ9v3ybjBqtZt5uNC5orNSlNP4iwQ2OC2CUGpwjJcpJMvgiINEWjI0WaIMbRZoyNEWgMbRZNxkmm01vytzRkaLNBG0stZlHELneuXeLo9puoyjOKlFpxaymuk49o9Nnf1bOWF71PO+DO631zaVya7S6kGC3uad1SVSlLK6uozmzYAAAAAAAAAAAAAAAAAAAAAAAAAAAAAAAAAAAAAAAAAAAAAAAAAAAAAAAAAAAAAAAAAAAAAAAAAAAAAAAAAAAAAAAAAAAAAAAAAAAAAAAAAAAAAAAAAAAAAAAAAAAAADW6jqatU6dLDqv5IjU9R+DR7qm06rX/AIV1nPtuUm2223lt72zO99doZ3vrtC8pSnJznJuTeW3vyEgkSSMmIkXSLpEkgqyRJIukXSKLJF0iSQSCrJF8Eki6RR47+bjatLnJpIz0aSpUYQ6kkyU6VOrKKmk3F5SzyMmAqOBgngYCIYGCeBgCGDFXp95RnDGW4tJesz4GANZpFy7mzeViVOTi0e9o1VhB22tXlDDUJ+/F43df8ZuGiyssbRFoyNFmjlEGiLRkaItBEGiLRkaItEGNoi0ZGizQRajdys60Zxmoyk8KLeFLnuOms7yneUuKG6S+tF80UssqV9re0Dv677q0tKko0opZTayt2fnfyerrqNapbVVUpy95fI0Wl0w5Znvrs68Hms7uF3RU4bmt0o9R6T0RO3r5gAAAAAAAAAAAAAAAAAAAAAAAAAAAAAAAAAAAAAAAAAAAAAAAAAAAAAAAAAAAAAAAAAAAAAAAAAAAAAAAAAAAAAAAAAAAAAAAAAAAAAAAAAAAAAAAAAAAAAAAB4tQvo2dLdh1ZfVj/GZ7ivC2oyqze5L5Tl69adzWlVm8t8l1HF7acXtrshKUpyc5tuTeW30hIJEkjFgJE0gkSSCrJEkgkTSKLJF0i6RJIqrJF0i6RJIKikSSLpF0ijwWy7zUK9Tmo+79/kPdgx29tGgpJSbcpZy+ZmwFRwXwSwMARwME8FsAQwWwZMFsAaq9qxttStZPK7x8OVy++82LRrNoab+BU6y+tTqJp9XP+Q2dOSqUoVFylFNFFmizRzXaGv8AsZd/2qf8OJSPSNXudFup3No4xrSpypxm1nhzjeeXLxEY7xWYePPxcYckUmFe61xQt3FVq1Om5NKKnNJtk2ijOj6Lr+o6tZanVtLqtTdxTqSr1M74qSecvmVpaOsWSckTMxp3gzTliZmumJos0TaLNGrdiaORtLi/1/aNXEYulYWVRpJvKct66Ob+ZLr6c1tqt9re00Y2kKlPT7RtVG/d4nvW/wDiXxv1dNClClHhpwjCLbeIrC3nPNh/9vKe0T7rNJciDRlaItFapW1zO1rqpDf0OPWjp6FaFxRVWD91/Mcm0evTr12lfhk/1UniS6n1ndLa7O6W12l04LJppNPKLmzcAAAAAAAAAAAAAAAAAAAAAAAAAAAAAAAAAAAAAAAAAAAAAAAAAAAAAAAAAAAAAAAAAAAAAAAAAAAAAAAAAAAAAAAAAAAAAAAAAAAAAAAAAAAAAAAAAAAA12q3fwe37uL/AFlTd7ESZ1G0mdRtrNTvHc1+CD/VQeFjpfWeFIJEkjCZ3O3nmdztdIkkEiSRASJJBImkUEiSQSLpFUSJJF0i6RVEiSQSJJBUUjFdzdO1qSTw8YyueT0JGG8oTuKHd02k3JN53FUtlJ21NzbcnFNt8zNgvGCjBJckkkSwURwMEsF8AQwME8FsAQwME8DAHjvqUaljVU0mlHOHy3byNhONSxpSg00o4WPVuPXUgqlOUHylFp+w1Gzsm7CpTfOnUax6vvkg1PaIv+xd5/ap/wAOJS/Y+xo6jtZp9tXipUnNzcXvT4YuWPmKp9oy/wCxV5/ap/w4lNez78ONO/nPzUz53ERvPWJ9HyOLjfFUifT/ANq3NFmjI0RaPoPrMbRytDaCvqu01K00+LdjQ4nXqJZUufzZ+NnpW0nwzaalpljBVaEVLv6qWVlJ8vj6elm1sNMtdMozp20GlOTnOTeZNvrZxz5MJmck/uT2ie69tZW9lSdK2oxpQcnLhisJtmVoyNEWitIjXaGJoi0ZWiDRBjaItE2iLQRudGvOOPwab96KzBvpXUbg46E5UqkZweJReUdVa3Ebm3hVjuyt66ma47bjTbHbcaZwAaNAAAAAAAAAAAAAAAAAAAAAAAAAAAAAAAAAAAAAAAAAAAAAAAAAAAAAAAAAAAAAAAAAAAAAAAAAAAAAAAAAAAAAAAAAAAAAAAAAAAAAAAAAAAAAAAAEW1GLbeEll5OVu7h3V1Oo/q5xH1I3Os3HdWqpReJVHj4uk0CRlkn8Mck/hdIkkEiSRm4XSJpFkiSRRdIkkWSJpFUSJpBIukVV0i6QSJpBRIukEiSRVEjzV68qdzQpxSam/ezzxuPWkeOpSnLU6UuB8EYvMsbukqvYkXwXSL4AjgYJ4GCiGBgngYAhgtgyYLNAY2jWabQjQuryEc+9Piw/jNq0aag3Dae5ptvhnTTSb3fs/wAoDaPRf3/olbTvhHcd5KL7zg4sYafLK6jmdn+zn9w65b6n+9O/7ni/V/B+HOYuPPifWd60WaMbYqWtFpjvDG2DHe8XtHeGNo0M9o6E9pKWj28VVbUlWqJ7oNJvHT8fQj1VtdtI67S0eD47ipGTm00lT3Zw/X7N5h0DZy30KlUkpKrc1W3Os1jd1Ln/ACs6ncz2S1ptMRTl+f6J6RodrotGpC3TlOpJynUkkpPnjl1GxaMjRBoutcndaxWNQg0QaMjRFogxtEWjI0QaIiDRBom0RaIMbRstGue6uHQk/dqb16ma9oim4SUk8NNNPqLE6nZE6nbsgYLW4VzbQqr9pb/UzOeh6YAAAAAAAAAAAAAAAAAAAAAAAAAAAAAAAAAAAAAAAAAAAAAAAAAAAAAAAAAAAAAAAAAAAAAAAAAAAAAAAAAAAAAAAAAAAAAAAAAAAAAAAAAAAAAAA895W+D2lSpnelu9vQJHP6lX+EX02n7sfdXxczzJFkSSPM80952kkSSLJE0gLpE0iKRNIqrpE0iKRNIqrpEkgkSSKq6RdIJEkiqJEkgkSSKqyRjhXjO4nRSfFFZb6OgzpHhs1xX11Lqlj6Sq9yRfBJIYAtgvgvgvgCOC2CeC2AI4LYJ4LNAQaNTVt3HaKjWUkk6TTXS3v/kNw0afU6s6GrafjHDUk4v5vtA2bRr62q2sdUp6Wpt3dSnKXDFZUUvyn0ff1Hor31tTu4WLrxV3VhKVOn0vH3++DnNmNmK1nXqatqsnV1KrJtZlxd2n/G/mW5HEzO9Qyva24rWP2+n92XZrZeOjupd3c1X1CrJuVTOVFPqb6+lnQNGRos0WIiI1C0pFI+tWNoi0TaItBWNog0ZGiLREY2iLRkaINERjaItE2iDREQaINGRog0RG20O4xKpbt8/ej/H/ABG7OSta3we6p1eiLWfYdYnk1xz2bY53GlwAaNAAAAAAAAAAAAAAAAAAAAAAAAAhOcaVOVSclGMU25N7kusmUj7UdtOLj2e0+o8L/vlSD/8Ah/b8nWZZcsYq/aWOfNXDSbWazabtQ1arrNSOh3fwexp+5B91CbqNc5e8nhdSKk7Gw16WjRutoLyVa5r4nCi6UIdzHoT4Ut76erkU67Mdjf3ldx1y+h/ydCX6iDW6rUX7XsX0+xlazz8LXJb/AOS88+UPLwdct95skz35QAA9r6AAAAAAAAAAAAAAAAAAAAAAAAAAAAAAAAAAAAAAAAAAAAAAAAAAAAAAAAAAAAAAAAAAAAAAAAAAABp9cq4pU6S/afE/Yv8A1Nwc3q9TvNQks7oJR/jOLzqHGSdVeFE0RRNGLFJImkQRNFE0iSRFE0iqkkSSIOcYLMpJLrbwQV3Qc4wVROTaSS37yq9CRNIwV6sqEIuNOVRt4wjEq99P6lsorrkV096RJIxOM50Goy4ajXPqZ51Y15/Xu5+xFV70izq0486kF7ZYI29HuKShxuWG3l8zEtNtnJtwbbeXmRVeinVp1G1TqRk1zw8mL4XZ05ySnBSz72Fl/MZaNtRoZdOHDnm85PHplClUo1Kk6cJSc3vccvoA9VO9t6tRU4Tbk9yXDgyV7mnbRi6mcSytyyThQpRacacE1yajgm4qXNJ+0o8P71t/yaj+I9dWrGlRlVabikm0jIoJcopfESwFa7962/5FT5F9p66FWNekqkE0nlJPmZsDAGvep26bTU927kZaF1SuW1TzmOOawelwi+cU/iLKEY5xFLPUsAeWreUKNR06k8SWMrGTRa7eUal1YRoVYyrqblGHS0sdG46C5hSVKpUlShOai5JOOW8fE39JTjTLK+q3K2o1OPA6k+ChRUcJRafyLq6Xz9vMzqdM7X1aKxHNtdl9Fu431TX9brShe18qFOcuFxXrX0LoXr5depwlynF+x5L17alXUVUjnGcb8Hmlpds+SkvZIVr9Y0Y8cUrqHpaItCvSdSjKmpuDeMSXNHhdndQ+pdt+37sOnsaINClGpCilVkpzWctbkzxO6u4f4lq31uP3ZEetog0QoXHwhS9yUHHCwy0riipuDqRUluabwRF2iLRPKkspprrRFojljaItE2RZEY2iDMjIMggzp9Ord9Y0pN70uF+1HMM3WhVM0qtJv6rUvl/9Duk93WOe7cAA2bgAAAAAAAAAAAAAAAAAAAAAAAOJ7QdsY7N6W7W1qL953MWqaXOlHk5/Z6/YyjmzumW+ta3CnqOoULS24nUr17isoOSzyTlzk/5Tudv9i9odb2rrXun6f39tKnCMZ99TjvS37nJM5j9Ge1/4o85peM+TxHVvl3NZmIfD4rrXzbmkzEcuapm1GuaHb7D3tlpOr2MalOioUKVvdQ4lhrdFJ5Ka7E67c09sNOnf6rVhaxlLvJXFw1BLglz4njnj4zxansPtFo+n1b+/0/ubaljjqd/TljLSW6Mm3vaNRp2nXWrahSsrKl3txVbVOHEo5wm+b3dDM8ubJOSszXWvx3Z5uIy2y1ma6mPx379301Y6tpupuasNQtbp08caoVoz4c8s4Z7ym/ZhszrGz1fUnqtn8HVaNNU/1kJ5w5Z+q31oqQfWxXtekWtGpfbwXtekWtGpAAaNQAAAAAAAAAAcRtVR25nq0Hs5c0qdj3UeKMlSzx5efrJvlg4W+2p7QLDWoaRPU4Vb6TSVGjRozab5J4jz6fZvKy6l8Lel3fwHh+F9zPuOLGOPD4c59eCiMKW0fZ7rEdZ1HTaNxK4k4utVnx8Te+SUk/dk9+9rr57zwcTWa2iYmdTz8Q+ZxdZpaJibRE85/EK42arqyoK6adwqcVUa5OWN/wA+T0nh0rUqOraXa39DKpXFNVIp81nofsPce6J3HZ9KsxMbgABVAAAAAAAAAAAAAAAAAAAAAAAAAAAAAAAAAAAAAAAAAAAAAAAAAAAAAA5G4n3t1Vn+VJv4jqq0+7o1J/kxbORRlkZZPwkiaIJpLL3JcxSqwq8XdyTw8PBmzZUXhOM21GSbXNJ5weN21evOXe1sU8vEY9J6qFtTt01TTTfNt5bKrHUuK6qyp0qDbX7T5GS3hdd5xVpx4cNcK6z0IkiqxVbSlXqKdRNtLGM4Rlp21GnhxpxTXJ4yyaJoqpImkQRNFVJIkkWRJFVdImkRSJJFVfGVghb28Lem4U84bzv3slVeKNRrc1FtGDTXKdnFyk223vbyyq9iRdIJEkgLYL4LpDBVWwMF8DAEcGG4qq3t6laSyqcXJrOM49u4nWqRoUalaSk4wi5NRWW0vpZxezOo6rtJtDX1epGVHSqcJUqVJyaTzjfjk31vo5I5mdTplfJFZiv5n+dseykdU17XKm0l7+qtVCVK3pNZ3Pq+3pN9tNHOlRfVVi/pN1GEacFCEVGEUkopYSPDq7hGwk5tKKa3vkK11Bjp9K6mdy9MHxUoPrimGi1JqVCm1vTimmSaDtBog0TZFgQaINGRkGRygzzVbShVblKmm3za3M9TIMiPHSsqdCrxwlLk1hvKIXLuozToxjKON6fM9jIMiPDC8k6kadWjKEm8J9BnePlMjR57m3jXjFOUk47011nKJMgzzKF3QkkpKrBtLfzR6ZNRxlpZeN/SyIgzYaLPhvnHolBo8DM+nz4NRoPrlj5dxY5kTqXVAA9D0gAAAAAAAAAAAADR61tZomz9xSoape9xUqR44rupzyuWfdTNb+kzZD8b+bVvAeXbXYKptbqFtcw1CNqqNJ03GVJz4t+etHMfoVrfjyn/AFZ+I8mS/ERaYpWJj+fV4cuTiovMY6xMfz6ux/SZsh+N/Nq3gNrom02kbROutKu/hHccPefq5wxxZx9ZLPJlOf0K1vx5T/qz8R12w+xU9kHfud9G6+Fd39WlwcPDxet/lDFfiJtq9YiP59TDk4qbxGSsRH8+rsQAet7gGuvNa0rTqyo32pWdtVlHiUK1eMJNdeG/UzB5U7O/j7TP65T+05m9Y/LiclI7TMe8NwDT+VOzv4+0z+uU/tHlTs7+PtM/rlP7SfevmDqU8x7x/V49udNu9X2PvrCxo97c1u74IcSjnFSMnve7kmU62M2G2k0ja6wvr3Te6tqUpOpPv6csZhJLcpN9KKo+VOzv4+0z+uU/tHlTs7+PtM/rlP7TC+LFe8Xm3ePWHmy4cOTJGSbd49YbgGn8qdnfx9pn9cp/aPKnZ38faZ/XKf2m/wB6+YenqU8x7x/VuAafyp2d/H2mf1yn9puDqLRPKVi1bcpUo7Qe0O+07U6mj6PNUZ0UlXuOFOXE1nhjlYW58/sOFr6vtirRX9W/1uFrNrFfvasabz1PdE223OzWp1du72FnY17j4S414d1Tck1Jb230b0zr+1i5ktjNOp906Lq3EHKk8e6lCXu/E8fIfLyRkvN7WmY+r42WMmScl72mPryU3stX2v1GpKFjqOt3U4rMo0K1abS/6WzHcbQbUWdedC51fV6NaGOKnVuasZL2pvJ3XYtQbuNYrtboxpQT688Tf0I5LtF/D7Vf7cPzcTG1LRhjJ9p7sL0tXBXL9p3M+f7vZo9XbivqFhVlPaGpaTq05OblWdOUG1vzy4cfFg7/ALWL+907Z+yq2V3XtakrpRc6FVwbXBJ4yvYdRst+CGif6Ch+bicf2y/g1Y/6xfwJHsnHOPBadzO4fQnFOLhrTFpncb/9OB0ftB1vSbe8TvLi7uK0YxpTuqsqkaPPMkpN5fL1e3kbHYu717VduNMvL6pf3FBzm3UnxOmvcljHQjwdm2i22tbWwp3kI1KFvSlXlTksxm04xSfqzJP4j6CjFQioxSSSwkugz4bFfJEWtbtEseDw5M1Yva06ie0OB2ou9urDX5XWjWkLnTu7jGNFJTy+bbWVLPRu6DldUht1t5GhZ3mkKzt6dTjzOhKjFSw1xPjbk8Jvl1lageu/D/eZ3adT+HuycL95nd51P4a/RdNho2i2enQlxK3pRhxYxxPG9/G8mwAN4iIjUPTEREagABVAAAAAAAAAAAAAAAAAAAAAAAAAAAAAAAAAAAAAAAAAAAAAAAAAAAAAHmv3w2Fd/wBBo5ZHS6o8abW9i+lHIQqzqXzjGWKdNYkutmWTmxyc150a9xWkqkuCinuS6T10qUKMcU4pLp62XRNGbhNEkRRNFVJE0RRJFE0SRFE0V0kiaIImjpUkTRBE0VUkSRZEkFWnBzpTgtzlFpNkbSg7e3VOTTaby1yJVZuFGpNc4xbWesjZ1ZV7WFSeOKWeW5c2VXoRJIsi6Kq6RfARdIC2DHWq07ejOtVlw04RcpSfQkSqVIUacqlSSjCKcpNvCSRyOkbSVNptfvbOhRk9Hp0JQlU4cOcm8Z4sprKzjp6fZJtrt5cXvFZiPzPJg0HXb3ajaG6qRoyWiU6UqKhNLE5P8rK3trO7o6fX19vbUbS3p29vTjSo00oxhFYUURsLC20yyp2lpSVOjTWIxR6GSsTEd+aY6TWP3p3KDNVtCs6NW9Uo/SjbM8Gr041dNqwlvT4eXtRXadlvsLd9dKP0IyshaxULOhFclTivmRkZEQZFk2RYEGQZNkGREGQZNkGRygyLJsgyIgyDJsgzlEGee4oRrxSk2mt6a6GelkGEa+nUrUKsaNZOcXujJb2e2g+G5pS6pp/Ogzz0bhzuJ03HDg1080RHcAA9L1AAAAAAAAAAAAACnu3+3Op7K6laW9jRtKkK1F1JOtCUmnnHRJbjkP0x7Q/3LTP+FU8ZV++0PStVqxqX+n21zOC4YyrUlJpdW88vkds3+I7D+rx+w8mTFmtaZrfUPDlwcTa8zTJqFKv0x7Q/3LTP+FU8Z23Z5thqG1j1L4fStqfwbuuDuISjni4s5zJ/ko3/AJHbN/iOw/q8fsPZp+j6bpXePT7C3te8xx9zTUeLHLOPaxjxZq23a+4MODiK3ib33DYAA9b3NBrGx+ha/eRu9TsXXrwpqmpd7OGIpt492SXNs8H6M9kPxR5zW8Z1wM5xY5nc1hlODFadzWJn9jkf0Z7Ifijzmt4x+jPZD8Uec1vGdccBedrOhWN9cWlW01F1KFWVKbhTg03F4ePf5Gd6YKf4oiP0ZZKcNj73iI/Rsf0Z7Ifijzmt4x+jPZD8Uec1vGan9Mmz39y1T/hU/GP0ybPf3LVP+FT8Zn9+F9P5/Rl1OC//AD7f2bb9GeyH4o85reMfoz2Q/FHnNbxm60HW7faLSKWpWtOrCjVcko1UlJNNp8m1zRtDaMWKY3FY9norgwWjcVj2cj+jPZD8Uec1vGdcAaVpWv8AhjTSmOlP8MRAUk7aq/8Ak9unu/W1Gv8AwJfxlWyne32xGr7Vara17KvaU6FGjwYrVJqXE5Nt7otcsGPFVtbFMVjuw42tr4ZrSNzLB2NUUtndQrdM7vg+SEX/APyKf9ov4far/bh+biVm2I0C42a2chYXc6Mq/eTqTlSk3F5frS6MHGbVdmeta7tNe6nbXNhCjXlFxjVqTUliKW9KLXQebLhvPD1rEd4eTPw+SeFpSsbmP7qgbLfghon+gofm4nH9sv4NWP8ArF/AkdvotnU07QdPsa0oyq29tTpTcHucoxSePkND2gbM3u1OkW1pY1aFOpSrqrJ1pNJrhkuhPrPTlrM4JrEd9f0evNS1uHmkR31/RT3sc/C+7/0E/wA5TK4lN9g9g9V2W12te3te0qUqltKilQnJvLlF53xW73SpBOEpamLVo1LngcdseH62jU7kAB6XsAAAAAAAAAAAAAAAAAAAAAAAAAAAAAAAAAAAAAAAAAAAAAAAAAAAAAAAAAAB4dW/y2r/ANP0o4yyU6d/dQqNYlLih14+7O11OOdOrL1J/OjjL+hWnBVrZ4rU3nHS0ZZObHJzbBE0eCw1GneR4X7lZfWg+Z70ZuE0TRBE0VU0TRBEkUTRNEETR06TRJEETRVTRJEETRVTRJEUSQVGunK2qxSy3BrC6dzIWEJQsqcZxaks7nufNmWc1CnKbWVFNtIW9eNejGpFNJ53PmVWZEkRRdFVNFyKLplVdpNNNZTPHZadaadRdGzt6dGm5ubjBYTb5s9eQ2RJiOazIsuyzAizWa+2tFuGnh+7vX9pGzZrtaputpVWmnhtx3v2oiMth/ltrne+5hv+JGZmK0hwWVvBvLjSis/EjKyIiyLJMiwIMgybIMiIMiyTIMjlFkGTZBkRBkWSZBnKIsgybIMIgzU2lWVxqt1OO+nFKOV0vd9jM97cTqwlQtJJ1JLHEuSMthZxtKMKK3tyTlLrZB3QAPS9IAAAAAAAAAAAAAAAAAAAAAAAAU0vuyK0v9QubyerVoSr1Z1XFUotRcm3jmVLBnkxUydrRtllw0yxq8bUb1zsz0bZ/Sqt/e65XVOCxGKoxzUl0RW/e2U70zTLrWNRo2NlSdSvVliK6Eut+pG+282hvNc2juaVeXDb2dWdGjSi9yxJri9rx/EbPs+2u0XZqVSN7Y1VXrSxK8i+Phh1cOMpdLxlv4kj5NoxXy/WP3YfDvGG+f6R+7WFXtmNDjs7s/baaqrqukm5TaxmTbbx6ss3Jgtbqhe2tO5tqsKtCouKE4PKkutGc+zWIiIiOT79IitYivIABXQAAAAAAAAAAAAAAAAAAAAAAAAAAAAAAAAAAAAAAAAAAAAAAAAAAAAAAAAAAAAAAAAAAAAAAADz3seKyrL+gzlUdhOKlCUXyawcdhptPc1uZlkZZHmuNNo3FaNZZhWi8qS3ZfrMc9Rq2MoxuqUpQe7vI8jYIk0pRaaTT3NNZTOGcI213Quo5o1Iz9S3NfEelGrno1tKrGrS4qM08+692S9WepWqTpwjcQXPr+/yl0rbImjTUteocXBc0qlCXU1lL+M2tOvSqfUnF56E95VZ0SRBE0FTRJEETR0qaJogiSKqaJIgmSQVatvt6i/ov+Mw6Y/+Rh7WenKw88sdJalOlOGaTi4p493kVWZEkyCZdMCaZfJHIyVUsjJHIyAbLNhss2EWbNZrtWVHSqkovDzFLO/pRs2zUbQxlPS3GEctzjuXxkHutm3aUW+bpxfx4RNkaKcbenF7mopEmyIiyLLsiwLMgyTIMiIsgybIMjlBkWSbPFX1Kzt895cQyuhPifzER6GQZ4pak6tNu0oyqNrMcrCPG7TVL3/vNwqFN/sQ5/f4yaTT317ulQi8yzJZ91b2apyv9V3KPwa2fS+bX3+I2Vtp9C0glFOTX7Ut7M7IPLbWlKzoqnTT9cnvbZ6raPFd0Y9dSP0kGenTIceo0V1Nv5BHNI7y6gAHoekAAAAAAAAAAAAAAAAAAAAAAAALJp5SaeHvMdao6VCpUjTlUcYuShHnJpckfO1banaTTdob28Vxc2d1XqudahNPhXLCcHu3LCTxnBhmzxi1uObzcRxNcGtxvatVzsJszd1atWvpNKdSrJznPikm2+bymUh7RNlrPZjV6ELGcvg9zSc1SnLidNp459X8p7F2u7SqHC42LeMcToSz/COUv9Q1TaXVVWuZ1Lu8q4hCMI7+nEYxR4OIzYcldUjv+x8ziuI4fJTWOvf9mlU+xu/rVtI1CxqNulbVYTp55JTzlL445+Mqccj2f7MVNmdn+7usfDLmfe1kt/Buwo59S+ds64+hw9bVxVi3N9Tha2phrW3MABs9AAAAAAAAAAAAAAAAAAAAAAAAAAAAAAAAAAAAAAAAAAAAAAAAAAAAAAAAAAAAAAAAAAAAAAAAAcneQ7q9rQ6pNnWHPa1S4bxVFynHLfrX3RnkjszyR2eBE0Y0TRkyTRNGNE0UXnSp1Y4qQjNLoksnnr6VbXEHH3oZecxZ6kTTK6hqlpV/b/8AddQk0v2anJfSeqNXUqFHNSnCrJLLa5tnuTJJlXbUrXpUt1zYVqWObW/6cHuttXtLiHEpSik8YlE9aZF0KMudKDz/AESqtDULOcmlc0sp4ac8PJ6oTjNZjJSXWnk1s9FsKrbdvhvflSaI0tCtaE3OnOrFtY+tlFVt0yaZpaukV5z4qOo1qSxjCzj6UKdhqtOpFrUVOKe9SW9r5yq3fNNdZ49Jf/KtdU2voPPWhq8YruatGTz0r+Q8lCOu2kZRp29Cabzvl/KgOjTLpmqlc6nCi38Eg5pZwn/Kef8AemrR+tpbfsbKrfZGTVUNRvZ081NPnB5axn+QwPWb+Mmlo9ZpPGU3v/8AKBvclsmooatd1ZSUtKrU8LKbzv8AmI1tWvoT4YaVVmsZ4k3j6ANw2GzSw1XUZ1Ip6VUim8Zbe75jJXvdShFOjYqTbxhvkBtGzVa7cK3sYNxb4qqSS9jMHwzXpcrCivbL/wD0a/aGWpVKFrTcKUZyqLC6MhHUclgs2aV0Nenzu6EF1Jb/AKDNSs75U8Vr5uWXlxX/AKEGybMU6kI54pxXteDUS0GVSTda/rzTfL75MtDQ7S3cnGVSbfPil9gRnranZUJNVLmCa6E8v5jyfv6ylUVOm5zb5NRwvnPS9MsuPjdtCUut7zNChRpf4dKEP7McERra+p3Xuq2sZ1M53voMDeuXD/8AZoLq57vnN02QbJtNtZW0yVzDhuLmbTabSFLR7GhvVFTa6Zvi/kNi2QbJtNoJRhFKKSS6EsJEWSZFnKIMgybIMiIM2Wh083dSfRGGPl+7Naze6HS4bWdR85y+j7s6pG5dUjdm1ABu3AAAAAAAAAAAAAAAAAAAAAAAADwX+kadqsFC/sbe5S5d7TUsezPI94JMRPaUmImNS5OfZzslOp3j0iKfVGtUivkUsG503QNJ0fL0/T7e3k1hypwxJr1vmbMHMY6VncRDiuLHWd1rEfoAA7aAAAAAAAAAAAAAAAAAAAAAAAAAAAAAAAAAAAAAAAAAAAAAAAAAAAAAAAAAAAAAAAAAAAAAAAAAAAGr1ujx2kaiW+D3+x/dG0MVemq9CdN8pRayS0bjSTG405JE0QcXCUotYabTXUySZ53mZEyaZjTJJlVkTJpmNMkmFZEyaZjTJpnSppk0zGmTTKrImSTMaZJMqppk0zGmSTKqaZ47GcvhN1CUm0pbsvOOZ60zBRt5U7qrVck1U6OlBXrTJJmNMvkCeRkjkZAlkZI5GQJZLNkchsA2azUakPhllTk1mU8rPTyNk2aS/febSWNP8mLl9P2Ablss2GyLYBsg2XbItkRZsi2XbINkcjZBsu2RbIItkWyTZBsjlFsg2SbINkRZsg2SbINkFmdXaUe4tKdPpjHf7TndPo9/fU44zFPifxHUmmOPy0xx+QAGrUAAAAAAAAAAAAAAAAAAAAAAAAAAAAAAAAAAAAAAAAAAAAAAAAAAAAAAAAAAAAAAAAAAAAAAAAAAAAAAAAAAAAAAAAAAAAAAAAAAAAAAAAAAAAAc5q9v3V33iXu1Fn4+k8KZ0mpW3wm0kkszj70TmkzC8alheNSmmTTIJkkzlyyJk0zEmTTKMiZJMxpk0yqmmTTMaZJMrpkTJJmNMmmUTTJJmNMkmVU0zzu4mtRjReOBxyt28zJnlrU5vUKFWMW0k02uhbyq96ZfJBMvkKnkZIZL5AlkZI5GQL5LZLZLZAk2ax0oT15VWvfp08J56PuzYNml09urr+oVc7opQ+j7AjdNkWw2RbILtkGw2WbIizZFsu2QbIg2QbLtkWyIs2QbJNkGyIs2RbDZFsiLNkGy7ZelTlWrQpQ5yaX8oRudEt+CjOu1vm8L2I25jpU40qUacViMUkjIeisajT01jUaAAVQAAAAAAAAAAAAAAAAAAAAAAAAAAAAAAAAAAAAAAAAAAAAAAAAAAAAAAAAAAAAAAAAAAAAAAAAAAAAAAAAAAAAAAAAAAAAAAAAAAAAAAAAAAAAAOZ1O1+DXbaX6ueZL1PpOmPLfWqurZw/aW+L9ZzeNw5vXcOYTJJkGnGTTWGnhp9BJMwedkTJpmJMkmFZUySZjTJJlVkTJpmJMkmVWRMkmQTLplVkTLpkEy6ZRkTMVzcq2gpOLacsbnjBNM8uoris5P8lplV7ky+TBQnx0KcuuKbMuQqeRkhkZAnkZIZGQJ5LZI5GQLtmq0ii4Suqzll1amc4x1/aey8q9zZ16ieHGEmvnPLornLS6c5vMpNvOMdLCNi2RbLNlmyINlmyzZFsgNlmw2RbCDZBsNkWyINkGy7ZFsiLNkWw2RbILNm40S1xxXMlz92Hs6TWW1vK6uI0o9Ly31I6qnTjSpxhBYjFYSO6Rudu8ddztMAGzYAAAAAAAAAAAAAAAAAAAAAAAAAAAAAAAAAAAAAAAAAAAAAAAAAAAAAAAAAAAAAAAAAAAAAAAAAAAAAAAAAAAAAAAAAAAAAAAAAAAAAAAAAAAAAAAAAAGj1iyxL4VBbnunjo9ZqUzsJRjOLjJJxaw0+k5m/s5WddpZdOW+LMb113Y5K67wwJkkzGmSTOHDImSTMaZJMoypl0zGmSTCsiZJMxpkkyqmmSTMaZJMommXbWHnl6zGmSyFXpVoVo8VOWUnjPLeTya7T3wTr0fyZZ+I92SieS+SGRkCeRkhkZAlkZIZGQPFrLk9MqQgsyk0lvx0ozWVN0LGhTaw4wSa9Z4dVrtXFpbKOXVnv34wty+02eQJNkWyzZZsgu2RbLNlmyIu2QbDZFsIu2RbDZBsiDZFsNlmyCzZF7w2bXSLHjkrmqvdT9xPpfWWI3OiI3Ont0yy+C0OKa/Wz3v1eo2ABvEajT0RGo0AAqgAAAAAAAAAAAAAAAAAAAAAAAAAAAAAAAAAAAAAAAAAAAAAAAAAAAAAAAAAAAAAAAAAAAAAAAAAAAAAAAAAAAAAAAAAAAAAAAAAAAAAAAAAAAAAAAAAAGC5t4XVF0prc+T6jOAOSuLedrWdOa5b0+sxpnT3lnC7pcEt0lvjLqOarUaltVdOpHEl8jRhaunntX6iZJMxpkkzlyyJkkzGmXTCsqZdMxpl0yqypl0zGmXTKMiZdMxpkshVlCnCq6iSU5bs55mTJr7/MXSrLnCR7VJNJp5T3lGTIyQyXyBLIyRyWyBPJbJHJGU1GLbeEk3n1Aapp3G0ybT4KFPn0N/dm4bNZpVVXEa1yk1xSa38zYNiSV2w2RbLNkRdss2WbItkF2yLYbIthBsi2GyzZAbINhs9VjYzvKvSqafvSERsiNpadYyu6vFJNUove+v1HSRioRUYpJJYSXQRpUoUaahBJRSwkjIb1rqG9a/WAAHToAAAAAAAAAAAAAAAAAAAAAAAAAAAAAAAAAAAAAAAAAAAAAAAAAAAAAAAAAAAAAAAAAAAAAAAAAAAAAAAAAAAAAAAAAAAAAAAAAAAAAAAAAAAAAAAAAAAAAAAAPNd2dK8pcE1hrlJc0ekCY2c3JXNrUtavBUW7okukxpnV1qFO4puFWOY/Qc/e6dUtG5LM6X5S5r2mNqa5MLU13h5ky6ZjTJJnDhkTLpmNMkmFZEwmQTLplGRMvkxpl8hStTVelKm3hPG9c0SglCEYJtqKSy+ZHJ5KNSVO+q0pybUt8cvJR78l8kMjJBPIyQyMgSyeDWLj4PptXDxKfuL4/5Mnsya65nTutQp2jxLg96cWs/f+UpD06dR+DWFGm1hqOZe17z1ZIZGSG12yzZZsi2ESbIthsi2QXbIthsi2Bdsi2G8m1sdIlPFW5TUeah0v2liJnkREzyeew06d3JTlmNJPn0v2fadDSpQo01CEVGKWEkSUVCKSSSS5LoJG1axDetYqAA6dAAAAAAAAAAAAAAAAAAAAAAAAAAAAAAAAAAAAAAAAAAAAAAAAAAAAAAAAAAAAAAAAAAAAAAAAAAAAAAAAAAAAAAAAAAAAAAAAAAAAAAAAAAAAAAAAAAAAAAAAAAAAAAWaTTTWUXAGnvNHjPM7bEZdMHyfs6jTzhOlNwnFxkuho7AwV7ajcw4asE119KM7Y4nkztjieTlUy6ZsLnRqtLMqD7yP5L5r7TWtShJqUWmuhrDRnMTHNlMTHNNMumY0ySZBkyMkMjIGTJgrUHVrUqilwyi97xnKMmRkDJkZPBb1pwuJ0K0m23mMn0o9mSieRkhkZAtWrRoUJ1ZvEYxbNZo1OU1Wvqq9+tJ49S+/0E7urC7rqxi02sOoueD3QjGlTjTgsRikkl0IDJkZI5LZIJNlmyLZZsCTZZsi2Sp0qlafBShKb9S5BEWzLb21a6nw0oN9bfJGztdE5SuXn+hH7Tb06cKcVCEVGK6EjuKb5tK45nm8VlplK19+Xv1etrl7DYAGsREcmsREcgAFUAAAAAAAAAAAAAAAAAAAAAAAAAAAAAAAAAAAAAAAAAAAAAAAAAAAAAAAAAAAAAAAAAAAAAAAAAAAAAAAAAAAAAAAAAAAAAAAAAAAAAAAAAAAAAAAAAAAAAAAAAAAAAAAAAAAAADBXtaNzHFWmpevpRnANNJX0NrLt6mf6M/tNbWta9u/1tKUV14yvlOtBxOOJZzjieTjcjJ09XTrWtlyoxT647meOpoVN76VaUf7Sz9hxNJcTjlpcl8nunot1H6rpyXqe8889PvIc7eb9m/wCg51LnUvFXoKvwvi4ZReVJc8GVzjFpOSTfJN72TdCtH61GovbFo89e2jWS7yLTW7K3NERnyeHUNQdCKpUYudxPdFLekQnYVZtJXVRRTTaXSj10LSNL/Dptv8prLCvPp1l8EpSnUfFXqb5y5ntyZI21xL6tCo/ZBmWOmXk+VFpet4LqTUvNktk2cNDry+vUhBerez10tEt4YdSc5/MixSXUUtLQ5PTQ0+6r44aTjF9Mtx0VG0oUP8OlCL68bzOdxj8uox+Wpt9Epww683N/krcjZU6UKUOGEYxj1JYMgO4rEcmkViOQACqAAAAAAAAAAAAAAAAAAAAAAAAAAAAAAAAAAAAAAAAAAAAAAAAAAAAAAAAAAAAAAAAAAAAAAAAAAAAAAAAAAAAAAAAAAAAAAAAAAAAAAAAAAAAAAAAAAAAAAAAAAAAAAAAAAAAAAAAAAAAAAAAAAAAAAAAAAAAAAAAAAAAAAAAAAAAAAAAAAAAAAAAAAAAAAAAAAAAAAAAAAAAAAAAAAAAAAAAAAAAAAAAAAAAAAAAAAAAAAAAAAAAAAAAAAAAAAAAAAAAAAAAAAAAAAAAAAAAAAAAAAAAAAAAAAAAAAAAAAAAAAAAAAAAAAAAAAAAAAAAAAAAAAAAAAAAAAAAAAAAAAAAAAAAAAAAAAAAAAAAAAAAAAAAAAAAAAAAAAAAAAAAAAAAAAAAAAAAAAAAAAAAAAAAAAAAAAAAAAAAAAAAAAAAAAAAAAAAAAAAAAAAAAAAAAAAAAAAAAAAAAAAAAAAAAAAAAAAAAAAAAAAAAAAAAAAAAAAAAAAAAAAAAAAAAAAAAAAAAAAAAAAAAAAAAAAAAAAAAAAAAAAAAAAAAAAAAAAAAAAAAAAAAAAAAAAAAAAAAAAAAAAAAAAAAAAAAAAAAAA//9k=;" vertex="1" parent="7">
                    <mxGeometry x="395" y="120" width="300" height="150" as="geometry"/>
                </mxCell>
            </root>
        </mxGraphModel>
    </diagram>
</mxfile>